<?xml version="1.0" encoding="UTF-8"?>
<svg width="16px" height="20px" viewBox="0 0 16 20" version="1.1" xmlns="http://www.w3.org/2000/svg" xmlns:xlink="http://www.w3.org/1999/xlink">
    <title>icon-upload-white</title>
    <g id="Page-1" stroke="none" stroke-width="1" fill="none" fill-rule="evenodd">
        <g id="Onboarding---next" transform="translate(-551.000000, -634.000000)" fill="#FFFFFF" fill-rule="nonzero">
            <g id="form" transform="translate(466.000000, 265.000000)">
                <g id="upload-csv" transform="translate(0.000000, 355.000000)">
                    <path d="M93.6416064,20.6222222 C93.3031623,20.2666667 92.7165258,20.2666667 92.3780817,20.6222222 C92.3780817,20.6222222 89.6479658,23.3111111 89.5577141,23.4 C89.196707,23.7555556 89.196707,24.3111111 89.5577141,24.6666667 C89.8961582,25.0222222 90.4827946,25.0222222 90.8438017,24.6666667 C90.9340535,24.5777778 92.1073264,23.4222222 92.1073264,23.4222222 L92.1073264,29.7777778 C92.1073264,30.2666667 92.5360223,30.6888889 93.009844,30.6888889 C93.5062287,30.6888889 93.9123617,30.2666667 93.9123617,29.7777778 L93.9123617,23.4222222 C93.9123617,23.4222222 95.1533234,24.6222222 95.1758863,24.6666667 C95.5368934,25.0222222 96.1009669,25.0222222 96.4845369,24.6666667 C96.822981,24.3111111 96.822981,23.7555556 96.4845369,23.4 C96.461974,23.3555556 93.6416064,20.6222222 93.6416064,20.6222222 L93.6416064,20.6222222 Z M100.748933,18.5777778 C100.748933,18.5777778 100.658681,18.4888889 96.3717222,14.2666667 C96.2589075,14.1333333 96.0107152,14 95.7173969,14 L85.9250806,14 C85.4061329,14 85,14.4 85,14.9111111 L85,33.0888889 C85,33.6 85.4061329,34 85.9250806,34 L100.094607,34 C100.613555,34 100.997125,33.6 100.997125,33.0888889 L100.997125,19.2222222 C101.019688,18.9333333 100.906873,18.7111111 100.748933,18.5777778 L100.748933,18.5777778 Z M86.8501612,15.8222222 L94.7923164,15.8222222 L94.8148793,19.2222222 C94.8148793,19.7111111 95.2210122,20.1111111 95.7173969,20.1111111 L99.1695269,20.1111111 L99.1695269,32.1777778 L86.8501612,32.1777778 L86.8501612,15.8222222 Z" id="icon-upload-white"></path>
                </g>
            </g>
        </g>
    </g>
</svg>